<mxfile host="Electron" modified="2023-06-16T22:34:42.161Z" agent="Mozilla/5.0 (Windows NT 10.0; Win64; x64) AppleWebKit/537.36 (KHTML, like Gecko) draw.io/21.4.0 Chrome/112.0.5615.204 Electron/24.5.1 Safari/537.36" etag="2f681rAD8vQ4eMDI6e5u" version="21.4.0" type="device">
  <diagram name="Page-1" id="V3KGuSEFuNHL1HxplwAQ">
    <mxGraphModel dx="473" dy="1442" grid="1" gridSize="10" guides="1" tooltips="1" connect="1" arrows="1" fold="1" page="1" pageScale="1" pageWidth="827" pageHeight="1169" math="0" shadow="0">
      <root>
        <mxCell id="0" />
        <mxCell id="1" parent="0" />
        <mxCell id="Hf7qnuuq_ze9hw6gTD3t-7" style="edgeStyle=orthogonalEdgeStyle;rounded=0;orthogonalLoop=1;jettySize=auto;html=1;entryX=0.5;entryY=0;entryDx=0;entryDy=0;fontFamily=UGent Panno Text;fontSize=22;" edge="1" parent="1" source="Hf7qnuuq_ze9hw6gTD3t-1" target="Hf7qnuuq_ze9hw6gTD3t-2">
          <mxGeometry relative="1" as="geometry" />
        </mxCell>
        <mxCell id="Hf7qnuuq_ze9hw6gTD3t-1" value="Laser source" style="rounded=0;whiteSpace=wrap;html=1;fillColor=#d5e8d4;strokeColor=#82b366;fontFamily=UGent Panno Text;fontSize=22;" vertex="1" parent="1">
          <mxGeometry x="40" y="80.5" width="120" height="40" as="geometry" />
        </mxCell>
        <mxCell id="Hf7qnuuq_ze9hw6gTD3t-2" value="Splitter" style="shape=trapezoid;perimeter=trapezoidPerimeter;whiteSpace=wrap;html=1;fixedSize=1;rotation=-90;fontFamily=UGent Panno Text;fontSize=22;fillColor=#ffe6cc;strokeColor=#d79b00;" vertex="1" parent="1">
          <mxGeometry x="106.25" y="80" width="225" height="41.25" as="geometry" />
        </mxCell>
        <mxCell id="Hf7qnuuq_ze9hw6gTD3t-3" value="Modulator" style="rounded=0;whiteSpace=wrap;html=1;fillColor=#f8cecc;strokeColor=#b85450;fontFamily=UGent Panno Text;fontSize=22;" vertex="1" parent="1">
          <mxGeometry x="280" y="50" width="120" height="40" as="geometry" />
        </mxCell>
        <mxCell id="Hf7qnuuq_ze9hw6gTD3t-4" value="Modulator" style="rounded=0;whiteSpace=wrap;html=1;fillColor=#f8cecc;strokeColor=#b85450;fontFamily=UGent Panno Text;fontSize=22;" vertex="1" parent="1">
          <mxGeometry x="280" y="170" width="120" height="40" as="geometry" />
        </mxCell>
        <mxCell id="Hf7qnuuq_ze9hw6gTD3t-5" value="Modulator" style="rounded=0;whiteSpace=wrap;html=1;fillColor=#f8cecc;strokeColor=#b85450;fontFamily=UGent Panno Text;fontSize=22;" vertex="1" parent="1">
          <mxGeometry x="280" y="110" width="120" height="40" as="geometry" />
        </mxCell>
        <mxCell id="Hf7qnuuq_ze9hw6gTD3t-6" value="Modulator" style="rounded=0;whiteSpace=wrap;html=1;fillColor=#f8cecc;strokeColor=#b85450;fontFamily=UGent Panno Text;fontSize=22;" vertex="1" parent="1">
          <mxGeometry x="280" y="-10" width="120" height="40" as="geometry" />
        </mxCell>
        <mxCell id="Hf7qnuuq_ze9hw6gTD3t-11" value="" style="endArrow=classic;html=1;rounded=0;fontFamily=UGent Panno Text;fontSize=22;" edge="1" parent="1">
          <mxGeometry width="50" height="50" relative="1" as="geometry">
            <mxPoint x="240" y="10" as="sourcePoint" />
            <mxPoint x="280" y="10" as="targetPoint" />
          </mxGeometry>
        </mxCell>
        <mxCell id="Hf7qnuuq_ze9hw6gTD3t-12" value="" style="endArrow=classic;html=1;rounded=0;fontFamily=UGent Panno Text;fontSize=22;" edge="1" parent="1">
          <mxGeometry width="50" height="50" relative="1" as="geometry">
            <mxPoint x="240" y="69.9" as="sourcePoint" />
            <mxPoint x="280" y="69.9" as="targetPoint" />
          </mxGeometry>
        </mxCell>
        <mxCell id="Hf7qnuuq_ze9hw6gTD3t-13" value="" style="endArrow=classic;html=1;rounded=0;fontFamily=UGent Panno Text;fontSize=22;" edge="1" parent="1">
          <mxGeometry width="50" height="50" relative="1" as="geometry">
            <mxPoint x="240" y="129.9" as="sourcePoint" />
            <mxPoint x="280" y="129.9" as="targetPoint" />
          </mxGeometry>
        </mxCell>
        <mxCell id="Hf7qnuuq_ze9hw6gTD3t-14" value="" style="endArrow=classic;html=1;rounded=0;fontFamily=UGent Panno Text;fontSize=22;" edge="1" parent="1">
          <mxGeometry width="50" height="50" relative="1" as="geometry">
            <mxPoint x="240" y="189.9" as="sourcePoint" />
            <mxPoint x="280" y="189.9" as="targetPoint" />
          </mxGeometry>
        </mxCell>
        <mxCell id="Hf7qnuuq_ze9hw6gTD3t-32" style="edgeStyle=orthogonalEdgeStyle;rounded=0;orthogonalLoop=1;jettySize=auto;html=1;exitX=0.5;exitY=1;exitDx=0;exitDy=0;entryX=0;entryY=0.5;entryDx=0;entryDy=0;" edge="1" parent="1" source="Hf7qnuuq_ze9hw6gTD3t-15" target="Hf7qnuuq_ze9hw6gTD3t-31">
          <mxGeometry relative="1" as="geometry" />
        </mxCell>
        <mxCell id="Hf7qnuuq_ze9hw6gTD3t-15" value="Merger" style="shape=trapezoid;perimeter=trapezoidPerimeter;whiteSpace=wrap;html=1;fixedSize=1;rotation=-90;flipH=1;flipV=1;fontFamily=UGent Panno Text;fontSize=22;fillColor=#ffe6cc;strokeColor=#d79b00;" vertex="1" parent="1">
          <mxGeometry x="509" y="79.38" width="225" height="41.25" as="geometry" />
        </mxCell>
        <mxCell id="Hf7qnuuq_ze9hw6gTD3t-16" value="PS = 0째" style="rounded=0;whiteSpace=wrap;html=1;fillColor=#dae8fc;strokeColor=#6c8ebf;fontFamily=UGent Panno Text;fontSize=22;" vertex="1" parent="1">
          <mxGeometry x="440" y="-10" width="120" height="40" as="geometry" />
        </mxCell>
        <mxCell id="Hf7qnuuq_ze9hw6gTD3t-17" value="" style="rounded=0;whiteSpace=wrap;html=1;fillColor=#ffe6cc;strokeColor=#d79b00;fontFamily=UGent Panno Text;fontSize=22;" vertex="1" parent="1">
          <mxGeometry x="440" y="110" width="120" height="40" as="geometry" />
        </mxCell>
        <mxCell id="Hf7qnuuq_ze9hw6gTD3t-18" value="PS = 180째" style="rounded=0;whiteSpace=wrap;html=1;fillColor=#dae8fc;strokeColor=#6c8ebf;fontFamily=UGent Panno Text;fontSize=22;" vertex="1" parent="1">
          <mxGeometry x="440" y="50" width="120" height="40" as="geometry" />
        </mxCell>
        <mxCell id="Hf7qnuuq_ze9hw6gTD3t-19" value="" style="rounded=0;whiteSpace=wrap;html=1;fillColor=#ffe6cc;strokeColor=#d79b00;fontFamily=UGent Panno Text;fontSize=22;" vertex="1" parent="1">
          <mxGeometry x="440" y="170" width="120" height="40" as="geometry" />
        </mxCell>
        <mxCell id="Hf7qnuuq_ze9hw6gTD3t-20" value="PS = 270째" style="rounded=0;whiteSpace=wrap;html=1;fillColor=#dae8fc;strokeColor=#6c8ebf;fontFamily=UGent Panno Text;fontSize=22;" vertex="1" parent="1">
          <mxGeometry x="440" y="170" width="120" height="40" as="geometry" />
        </mxCell>
        <mxCell id="Hf7qnuuq_ze9hw6gTD3t-21" value="PS = 90째" style="rounded=0;whiteSpace=wrap;html=1;fillColor=#dae8fc;strokeColor=#6c8ebf;fontFamily=UGent Panno Text;fontSize=22;" vertex="1" parent="1">
          <mxGeometry x="440" y="110" width="120" height="40" as="geometry" />
        </mxCell>
        <mxCell id="Hf7qnuuq_ze9hw6gTD3t-22" value="" style="endArrow=classic;html=1;rounded=0;fontFamily=UGent Panno Text;fontSize=22;" edge="1" parent="1">
          <mxGeometry width="50" height="50" relative="1" as="geometry">
            <mxPoint x="400" y="9.860000000000014" as="sourcePoint" />
            <mxPoint x="440" y="9.860000000000014" as="targetPoint" />
          </mxGeometry>
        </mxCell>
        <mxCell id="Hf7qnuuq_ze9hw6gTD3t-24" value="" style="endArrow=classic;html=1;rounded=0;fontFamily=UGent Panno Text;fontSize=22;" edge="1" parent="1">
          <mxGeometry width="50" height="50" relative="1" as="geometry">
            <mxPoint x="400" y="69.86000000000001" as="sourcePoint" />
            <mxPoint x="440" y="69.86000000000001" as="targetPoint" />
          </mxGeometry>
        </mxCell>
        <mxCell id="Hf7qnuuq_ze9hw6gTD3t-25" value="" style="endArrow=classic;html=1;rounded=0;fontFamily=UGent Panno Text;fontSize=22;" edge="1" parent="1">
          <mxGeometry width="50" height="50" relative="1" as="geometry">
            <mxPoint x="400" y="129.86" as="sourcePoint" />
            <mxPoint x="440" y="129.86" as="targetPoint" />
          </mxGeometry>
        </mxCell>
        <mxCell id="Hf7qnuuq_ze9hw6gTD3t-26" value="" style="endArrow=classic;html=1;rounded=0;fontFamily=UGent Panno Text;fontSize=22;" edge="1" parent="1">
          <mxGeometry width="50" height="50" relative="1" as="geometry">
            <mxPoint x="400" y="189.86" as="sourcePoint" />
            <mxPoint x="440" y="189.86" as="targetPoint" />
          </mxGeometry>
        </mxCell>
        <mxCell id="Hf7qnuuq_ze9hw6gTD3t-27" value="" style="endArrow=classic;html=1;rounded=0;fontFamily=UGent Panno Text;fontSize=22;" edge="1" parent="1">
          <mxGeometry width="50" height="50" relative="1" as="geometry">
            <mxPoint x="560" y="10.460000000000013" as="sourcePoint" />
            <mxPoint x="600" y="10.460000000000013" as="targetPoint" />
          </mxGeometry>
        </mxCell>
        <mxCell id="Hf7qnuuq_ze9hw6gTD3t-28" value="" style="endArrow=classic;html=1;rounded=0;fontFamily=UGent Panno Text;fontSize=22;" edge="1" parent="1">
          <mxGeometry width="50" height="50" relative="1" as="geometry">
            <mxPoint x="560" y="70.46000000000001" as="sourcePoint" />
            <mxPoint x="600" y="70.46000000000001" as="targetPoint" />
          </mxGeometry>
        </mxCell>
        <mxCell id="Hf7qnuuq_ze9hw6gTD3t-29" value="" style="endArrow=classic;html=1;rounded=0;fontFamily=UGent Panno Text;fontSize=22;" edge="1" parent="1">
          <mxGeometry width="50" height="50" relative="1" as="geometry">
            <mxPoint x="560" y="130.46" as="sourcePoint" />
            <mxPoint x="600" y="130.46" as="targetPoint" />
          </mxGeometry>
        </mxCell>
        <mxCell id="Hf7qnuuq_ze9hw6gTD3t-30" value="" style="endArrow=classic;html=1;rounded=0;fontFamily=UGent Panno Text;fontSize=22;" edge="1" parent="1">
          <mxGeometry width="50" height="50" relative="1" as="geometry">
            <mxPoint x="560" y="190.46" as="sourcePoint" />
            <mxPoint x="600" y="190.46" as="targetPoint" />
          </mxGeometry>
        </mxCell>
        <mxCell id="Hf7qnuuq_ze9hw6gTD3t-31" value="" style="triangle;whiteSpace=wrap;html=1;fillColor=#f5f5f5;fontColor=#333333;strokeColor=#666666;flipH=1;" vertex="1" parent="1">
          <mxGeometry x="680" y="75" width="60" height="50" as="geometry" />
        </mxCell>
        <mxCell id="Hf7qnuuq_ze9hw6gTD3t-33" value="Output" style="text;html=1;strokeColor=none;fillColor=none;align=center;verticalAlign=middle;whiteSpace=wrap;rounded=0;fontFamily=UGent Panno Text;fontSize=22;" vertex="1" parent="1">
          <mxGeometry x="680" y="125" width="60" height="30" as="geometry" />
        </mxCell>
        <mxCell id="Hf7qnuuq_ze9hw6gTD3t-34" value="0.5" style="text;html=1;strokeColor=none;fillColor=none;align=center;verticalAlign=middle;whiteSpace=wrap;rounded=0;fontFamily=UGent Panno Text;fontSize=22;" vertex="1" parent="1">
          <mxGeometry x="240" y="-13" width="40" height="20" as="geometry" />
        </mxCell>
        <mxCell id="Hf7qnuuq_ze9hw6gTD3t-35" value="0.25" style="text;html=1;strokeColor=none;fillColor=none;align=center;verticalAlign=middle;whiteSpace=wrap;rounded=0;fontFamily=UGent Panno Text;fontSize=22;" vertex="1" parent="1">
          <mxGeometry x="240" y="47" width="40" height="20" as="geometry" />
        </mxCell>
        <mxCell id="Hf7qnuuq_ze9hw6gTD3t-36" value="0.5" style="text;html=1;strokeColor=none;fillColor=none;align=center;verticalAlign=middle;whiteSpace=wrap;rounded=0;fontFamily=UGent Panno Text;fontSize=22;" vertex="1" parent="1">
          <mxGeometry x="240" y="107" width="40" height="20" as="geometry" />
        </mxCell>
        <mxCell id="Hf7qnuuq_ze9hw6gTD3t-37" value="0.25" style="text;html=1;strokeColor=none;fillColor=none;align=center;verticalAlign=middle;whiteSpace=wrap;rounded=0;fontFamily=UGent Panno Text;fontSize=22;" vertex="1" parent="1">
          <mxGeometry x="240" y="167" width="40" height="20" as="geometry" />
        </mxCell>
      </root>
    </mxGraphModel>
  </diagram>
</mxfile>
